# xmcd
#
# Track frame offsets:
#	187
#	11360
#	23022
#	33585
#	44602
#	55830
#	66802
#	81625
#	95995
#	108072
#
# Disc length: 1557 seconds
#
# Revision: 5
# Processed by: cddbd v1.5.2PL0 Copyright (c) Steve Scherf et al.
# Submitted via: EZCDAudioConverter 6.0.5.1
#
DISCID=8006130a
DTITLE=Various Country Artists - Country Gold - Volume 8
DYEAR=1992
DGENRE=Country
TTITLE0=Patsy Cline - Don't Ever Leave Me Again
TTITLE1=Ernest Tubb And Kris Kristofferson - Letters Have No Arms
TTITLE2=Johnny Paycheck - Loving You Beats All I've Ever Seen
TTITLE3=Waylon Jennings - Big Mamou
TTITLE4=Patsy Cline - Stop The World (And Let Me Off)
TTITLE5=Johnny Paycheck - A-11
TTITLE6=Billie Jo Spears - Crazy
TTITLE7=Stonewall Jackson - A Wound Time Can't Erase
TTITLE8=Jean Shepard - A Dear John Letter
TTITLE9=Waylon Jennings - Jole Bion
EXTD=
EXTT0=
EXTT1=
EXTT2=
EXTT3=
EXTT4=
EXTT5=
EXTT6=
EXTT7=
EXTT8=
EXTT9=
PLAYORDER=
